<svg xmlns="http://www.w3.org/2000/svg" xmlns:xlink="http://www.w3.org/1999/xlink" width="483" height="147.8" viewBox="0 0 483 147.8">
  <defs>
    <clipPath id="clip-path">
      <path id="Path_12" data-name="Path 12" d="M107.1,72.3a41.785,41.785,0,0,0,76,24,37.4,37.4,0,1,1,0-48,41.785,41.785,0,0,0-76,24m4.3,0a37.1,37.1,0,0,1,10.9-26.4,41.772,41.772,0,0,0,0,52.8,37.52,37.52,0,0,1-10.9-26.4" fill="#fff"/>
    </clipPath>
    <clipPath id="clip-path-2">
      <rect id="Rectangle_2" data-name="Rectangle 2" width="76.3" height="83.8" transform="translate(106.9 30.3)" fill="#fff"/>
    </clipPath>
    <clipPath id="clip-path-3">
      <path id="Path_13" data-name="Path 13" d="M167.8,36.1c-.2-.1-.5-.2-.7-.3.2.1.5.2.7.3m.6.4c4.2,2.4.7,5.2-7.9,6.4a54.765,54.765,0,0,1-10.7.4,2.385,2.385,0,0,0-1.2.4c-1.9,1.4-3.1,5.4-.1,6a84.446,84.446,0,0,0,15.1-.5c11.3-1.5,16.4-5.2,12-8.4-1.2-.8-2.8-1.9-4-2.6a33.533,33.533,0,0,0-3.8-1.9c.2-.1.4,0,.6.2" fill="#fff"/>
    </clipPath>
    <clipPath id="clip-path-4">
      <rect id="Rectangle_4" data-name="Rectangle 4" width="30.7" height="14.2" transform="translate(146.5 35.6)" fill="#fff"/>
    </clipPath>
    <clipPath id="clip-path-5">
      <path id="Path_14" data-name="Path 14" d="M183.4,48.5c-.1-.1-.1-.2-.2-.3l.2.3m-16.9,9.2a104.875,104.875,0,0,1-29.7-.4,3.8,3.8,0,0,0-1.9.4c-2.5,1.4-4.3,6.5-.3,7.7a118.144,118.144,0,0,0,33.7.5C182,64.1,189.4,60,187.6,56c-.4-.9-1-2.1-1.5-3.1a40.8,40.8,0,0,0-2.8-4.4c2.4,3.7-4.1,7.5-16.8,9.2" fill="#fff"/>
    </clipPath>
    <clipPath id="clip-path-6">
      <rect id="Rectangle_6" data-name="Rectangle 6" width="55.9" height="18.7" transform="translate(132.1 48.1)" fill="#fff"/>
    </clipPath>
    <clipPath id="clip-path-7">
      <path id="Path_15" data-name="Path 15" d="M190.5,66.4v0m-21.1,9.5c-16.4,2.2-35.8.8-46.5-3.1a1.7,1.7,0,0,0-1,0c-2.2.7-2.5,6.8,1,8.7,10.7,3.9,30.1,5.3,46.5,3.1,12.9-1.7,20.6-5.3,21-9,.1-1.3.2-3.1.3-4.5,0-1.4-.2-3.2-.3-4.6.3,3.8-7.5,7.6-21,9.4" fill="#fff"/>
    </clipPath>
    <clipPath id="clip-path-8">
      <rect id="Rectangle_8" data-name="Rectangle 8" width="70.8" height="19.4" transform="translate(120.1 66.1)" fill="#fff"/>
    </clipPath>
    <clipPath id="clip-path-9">
      <path id="Path_16" data-name="Path 16" d="M187.7,85.9l.1-.2-.1.2m-19.4,7.4a118.845,118.845,0,0,1-33.8-.5,3.333,3.333,0,0,0-1.7.2c-1.7,1.1-.1,5,3.8,6a102.743,102.743,0,0,0,29.9.4c9-1.2,14.9-3.5,16.8-6,.8-1.2,1.9-2.8,2.6-4a37.783,37.783,0,0,0,1.7-3.5c-1.5,3.1-8.4,5.9-19.3,7.4" fill="#fff"/>
    </clipPath>
    <clipPath id="clip-path-10">
      <rect id="Rectangle_10" data-name="Rectangle 10" width="55.7" height="14.9" transform="translate(132.1 85.5)" fill="#fff"/>
    </clipPath>
  </defs>
  <g id="logo" transform="translate(1.2)">
    <path id="Path_1" data-name="Path 1" d="M25.7,23.6H14.3V.6c0-.2-.9-.4-2.6-.4C9.9.3,9,.4,9,.7V28H25.7c.3,0,.4-.7.4-2.2s-.2-2.2-.4-2.2Z" fill="#fff"/>
    <path id="Path_2" data-name="Path 2" d="M33,.7c0-.2-.9-.4-2.6-.4s-2.6.1-2.6.4V27.8c0,.2.9.4,2.6.4s2.6-.1,2.6-.4V.7ZM60.7.7c0-.2-.9-.4-2.6-.4-1.8,0-2.6.1-2.6.4V20a4.936,4.936,0,0,0,.3,1.5c-.4-.7-.6-1.2-.8-1.5L44.4.7c-.1-.2-1.1-.4-3-.4-2,0-3,.1-3,.4V27.8c0,.2.9.4,2.6.4,1.8,0,2.7-.1,2.7-.4V8.3a7.384,7.384,0,0,0-.2-1.2A8.661,8.661,0,0,0,44,8.3L55,27.7c.1.2,1.1.4,2.8.4,1.9,0,2.9-.1,2.9-.4V.7ZM74.1,13.3,85.5.7V.6q0-.3-3.3-.3c-1.9,0-3,.1-3.2.4L69.7,11.2V.7c0-.2-.9-.4-2.6-.4-1.8,0-2.6.1-2.6.4V27.8c0,.2.9.4,2.6.4s2.6-.1,2.6-.4V17.9l.9-1,9.1,11a6.443,6.443,0,0,0,3,.4c2,0,3.1-.1,3.1-.3v-.1L74.1,13.3Zm40.2,2.4c-1.7,0-2.7.1-2.8.4l-1.3,2.1-4.7-5.1c.7-.5,1.1-.9,1.4-1.1a5.544,5.544,0,0,0,2.7-4.5V5.6c0-3.7-2.3-5.5-6.8-5.6-2.6,0-4.5.6-5.7,1.9a5.512,5.512,0,0,0-1.5,4V7.5a3.876,3.876,0,0,0,1,2.6c.6.7,1.3,1.4,1.9,2.1-3.4,2.4-5.1,4.6-5.1,6.7v2.2a6,6,0,0,0,3,5.6,13.585,13.585,0,0,0,6.9,1.5c3.2,0,5.7-.9,7.3-2.7l2.3,2.6c0,.1.1.1.2.1.3,0,1-.5,2-1.4s1.4-1.6,1.4-1.9c0-.1,0-.2-.1-.2a37.6,37.6,0,0,1-2.9-3.1c1.6-2.5,2.9-4.4,3.7-5.6.1-.2-.9-.3-2.9-.3Zm-10-8.4a2.271,2.271,0,0,1-.6,1.6c-.5.4-.9.8-1.4,1.2l-1.2-1.2a2.26,2.26,0,0,1-.5-1.5V6a1.668,1.668,0,0,1,.5-1.4,2.213,2.213,0,0,1,1.4-.3c1.3,0,1.9.5,1.9,1.6l-.1,1.4Zm-1.1,16.8c-3.1,0-4.7-1.1-4.7-3.3V19.5a3.038,3.038,0,0,1,1-2.3,18.521,18.521,0,0,1,2-1.6l6,6.5a4.85,4.85,0,0,1-4.3,2Z" fill="#fff"/>
    <path id="Path_3" data-name="Path 3" d="M20.4,119.8H0c-.2,0-.4.7-.4,2.1s.1,2.2.4,2.2H7.6v23c0,.2.9.4,2.6.4,1.8,0,2.6-.1,2.6-.4v-23h7.6c.3,0,.4-.7.4-2.2,0-1.4-.1-2.1-.4-2.1Zm18.7,23.1H27.3v-7.8h9.4c.3,0,.4-.7.4-2.2,0-1.4-.1-2.1-.4-2.1H27.3v-6.7H38.5c.3,0,.4-.7.4-2.1,0-1.5-.1-2.2-.4-2.2H22.1v27.5h17c.2,0,.3-.7.3-2.2.1-1.4-.1-2.2-.3-2.2Z" fill="#fff"/>
    <path id="Path_4" data-name="Path 4" d="M60.3,121.5c0-.1,0-.2-.1-.2a18.042,18.042,0,0,0-8-1.9,15.561,15.561,0,0,0-7.8,1.7,6.973,6.973,0,0,0-3.3,6.3v12.3a6.973,6.973,0,0,0,3.3,6.3,12.669,12.669,0,0,0,7.1,1.8,24.007,24.007,0,0,0,4.7-.6,20.3,20.3,0,0,0,3.7-1c.1,0,.2-.2.2-.4a6.513,6.513,0,0,0-.4-1.8c-.4-1.4-.7-2-.9-2a29.9,29.9,0,0,1-7.3,1.4c-3.4,0-5.2-1.3-5.2-3.8V127.3c0-2.5,1.9-3.7,5.8-3.7a11.851,11.851,0,0,1,3.2.5c.1,0,1.1.5,3,1.2.3.1.7-.5,1.2-2a5.047,5.047,0,0,0,.8-1.8Z" fill="#fff"/>
    <path id="Path_5" data-name="Path 5" d="M84.7,120c0-.2-.9-.4-2.6-.4-1.8,0-2.6.1-2.6.4v10.8h-11V120c0-.2-.9-.4-2.6-.4-1.8,0-2.6.1-2.6.4v27c0,.2.9.4,2.6.4,1.8,0,2.6-.1,2.6-.4V135.1h11V147c0,.2.9.4,2.6.4s2.6-.1,2.6-.4V120Zm26.1,0c0-.2-.9-.4-2.6-.4-1.8,0-2.6.1-2.6.4v19.4a4.936,4.936,0,0,0,.3,1.5c-.4-.7-.6-1.2-.8-1.5L94.5,120c-.1-.2-1.1-.4-3-.4-2,0-3,.1-3,.4v27c0,.2.9.4,2.6.4,1.8,0,2.7-.1,2.7-.4V127.6a7.385,7.385,0,0,0-.2-1.2,8.66,8.66,0,0,0,.5,1.2L105.2,147c.1.2,1.1.4,2.8.4,1.9,0,2.9-.1,2.9-.4V120Zm25.3,7.4a6.81,6.81,0,0,0-3.3-6.2,14.25,14.25,0,0,0-7.6-1.8,14.013,14.013,0,0,0-7.6,1.8,6.919,6.919,0,0,0-3.3,6.2v12.3a6.81,6.81,0,0,0,3.3,6.2,14.013,14.013,0,0,0,7.6,1.8,14.628,14.628,0,0,0,7.7-1.8,6.919,6.919,0,0,0,3.3-6.2V127.4Zm-10.9,16c-3.8,0-5.7-1.2-5.7-3.7V127.4c0-2.5,1.9-3.8,5.7-3.8s5.7,1.3,5.7,3.8v12.3c-.1,2.5-1.9,3.7-5.7,3.7Z" fill="#fff"/>
    <path id="Path_6" data-name="Path 6" d="M156.2,142.9H144.8v-23c0-.2-.9-.4-2.6-.4s-2.6.1-2.6.4v27.3h16.7c.3,0,.4-.7.4-2.2-.1-1.3-.3-2.1-.5-2.1Zm23.7-15.5a6.81,6.81,0,0,0-3.3-6.2,14.25,14.25,0,0,0-7.6-1.8,14.013,14.013,0,0,0-7.6,1.8,6.919,6.919,0,0,0-3.3,6.2v12.3a6.81,6.81,0,0,0,3.3,6.2,14.013,14.013,0,0,0,7.6,1.8,14.628,14.628,0,0,0,7.7-1.8,6.919,6.919,0,0,0,3.3-6.2V127.4Zm-10.9,16c-3.8,0-5.7-1.2-5.7-3.7V127.4c0-2.5,1.9-3.8,5.7-3.8s5.7,1.3,5.7,3.8v12.3c-.1,2.5-2,3.7-5.7,3.7Zm35-11.9H193.6c-.2,0-.4.7-.4,2.2s.1,2.2.4,2.2h5.1v3.7c0,2.5-1.8,3.8-5.4,3.8s-5.4-1.2-5.4-3.7V127.4c0-2.5,2-3.7,5.9-3.7a10.525,10.525,0,0,1,4,.7c.1,0,1.2.6,3.2,1.5.2.1.6-.6,1.3-2.1a13.073,13.073,0,0,0,.8-2.1c0-.1,0-.2-.1-.2a18.162,18.162,0,0,0-9.2-2.2,14.526,14.526,0,0,0-7.8,1.8,6.973,6.973,0,0,0-3.3,6.3v12.3a6.81,6.81,0,0,0,3.3,6.2,16.317,16.317,0,0,0,14.9,0,7.029,7.029,0,0,0,3.1-6.3v-8.1Zm8.4-11.5c0-.2-.9-.4-2.6-.4s-2.6.1-2.6.4v27c0,.2.9.4,2.6.4s2.6-.1,2.6-.4V120Z" fill="#fff"/>
    <path id="Path_7" data-name="Path 7" d="M234.6,142.9H222.9v-7.8h9.4c.3,0,.4-.7.4-2.2,0-1.4-.1-2.1-.4-2.1h-9.4v-6.7H234c.3,0,.4-.7.4-2.1,0-1.5-.1-2.2-.4-2.2H217.6v27.5h17c.2,0,.3-.7.3-2.2.1-1.4,0-2.2-.3-2.2Zm11.5-23.6c-5.1,0-8.1,1.9-9.1,5.6a7.469,7.469,0,0,0-.3,2,6.72,6.72,0,0,0,3.9,6.2c2.4,1.3,4.7,2.3,6.8,3.2,2,.8,3,2,3,3.5a2.768,2.768,0,0,1-.1.9c-.5,1.8-2.1,2.7-4.6,2.7-2,0-4.4-.9-7.4-2.8h-.1c-.2,0-.6.7-1.3,2a7.067,7.067,0,0,0-.8,2.1c0,.1,0,.2.1.2a20.025,20.025,0,0,0,4.4,2,18.57,18.57,0,0,0,5.5.9c5,0,8.1-2,9.4-6a6.562,6.562,0,0,0,.4-2.3,6.679,6.679,0,0,0-1.3-4.1,9.2,9.2,0,0,0-4-3.2c-2.4-1-4.7-2.1-6.9-3.2a2.569,2.569,0,0,1-1.6-2.3,5.02,5.02,0,0,1,.2-1.2c.4-1.1,1.6-1.7,3.8-1.7,1.4,0,3.6.6,6.9,1.9.2.1.6-.6,1.1-1.9a7.391,7.391,0,0,0,.6-2,.367.367,0,0,0-.1-.3,20.946,20.946,0,0,0-8.5-2.2Z" fill="#fff"/>
    <path id="Path_8" data-name="Path 8" d="M47.3,42a.6.6,0,0,0-.3-.6,46.951,46.951,0,0,0-20.1-4.8C18.6,36.6,12,38,7.2,41c-5.6,3.5-8.4,8.8-8.4,16V87.9c0,7,2.8,12.3,8.3,15.8q6.9,4.5,18,4.5A68.1,68.1,0,0,0,37,106.8a54.5,54.5,0,0,0,9.3-2.4c.3-.1.4-.5.4-1a21.046,21.046,0,0,0-1-4.6c-1-3.5-1.7-5.1-2.4-4.9-7.9,2.3-14,3.5-18.3,3.5-8.7,0-13-3.2-13-9.5v-31c0-6.2,4.9-9.4,14.7-9.4a25.558,25.558,0,0,1,8.1,1.4c.2.1,2.8,1.1,7.5,3.1.7.3,1.7-1.4,3.1-5a20.834,20.834,0,0,0,1.9-5Z" fill="#fff"/>
    <path id="Path_9" data-name="Path 9" d="M94.9,80.6c6.4-3.5,9.5-9.3,9.5-17.4V58c0-13.5-8.1-20.3-24.2-20.3H54.5v68.7q0,.9,6.6.9t6.6-.9V83.5H81.3l11.8,22.9c.3.6,2.9.9,7.6.9q7.95,0,7.5-.9L94.9,80.6ZM81.7,72.3h-14V48.6H79.4c4,0,6.7.4,8.3,1.2,2.4,1.3,3.6,3.7,3.6,7.4v6.7q-.15,8.4-9.6,8.4ZM217.3,36.6q-19.05,0-22.8,14.1a17.923,17.923,0,0,0-.7,5.1c0,6.9,3.3,12,9.9,15.5,6.1,3.2,11.8,5.9,17.2,8.1,5.1,2.1,7.6,5,7.6,8.7a9.863,9.863,0,0,1-.3,2.4c-1.4,4.5-5.2,6.8-11.6,6.8-5,0-11.2-2.4-18.7-7.1h-.2c-.5,0-1.6,1.7-3.2,5.1-1.4,2.9-2.1,4.7-2.1,5.2a.845.845,0,0,0,.2.6,44.064,44.064,0,0,0,11.1,5,46.737,46.737,0,0,0,13.9,2.2c12.5,0,20.4-5,23.6-15.1a19.738,19.738,0,0,0,1-5.9,17.622,17.622,0,0,0-3.3-10.4A21.906,21.906,0,0,0,228.8,69c-6.1-2.6-11.9-5.3-17.3-7.9a6.312,6.312,0,0,1-3.9-5.9,8.865,8.865,0,0,1,.6-3c1-2.9,4.2-4.3,9.5-4.3,3.4,0,9.2,1.6,17.3,4.9.5.2,1.5-1.4,2.9-4.9a20.125,20.125,0,0,0,1.5-5c0-.4-.1-.6-.3-.7-8.5-3.8-15.8-5.6-21.8-5.6Z" fill="#fff"/>
    <path id="Path_10" data-name="Path 10" d="M272.4,36.6q-19.05,0-22.8,14.1a17.923,17.923,0,0,0-.7,5.1c0,6.9,3.3,12,9.9,15.5,6.1,3.2,11.8,5.9,17.2,8.1,5.1,2.1,7.6,5,7.6,8.7a9.863,9.863,0,0,1-.3,2.4c-1.4,4.5-5.2,6.8-11.6,6.8-5,0-11.2-2.4-18.7-7.1h-.2c-.5,0-1.6,1.7-3.2,5.1-1.4,2.9-2.1,4.7-2.1,5.2a.845.845,0,0,0,.2.6,44.064,44.064,0,0,0,11.1,5,46.737,46.737,0,0,0,13.9,2.2c12.5,0,20.4-5,23.6-15.1a19.738,19.738,0,0,0,1-5.9A17.622,17.622,0,0,0,294,76.9,21.906,21.906,0,0,0,283.9,69c-6.1-2.6-11.9-5.3-17.3-7.9a6.312,6.312,0,0,1-3.9-5.9,8.865,8.865,0,0,1,.6-3c1-2.9,4.2-4.3,9.5-4.3,3.4,0,9.2,1.6,17.3,4.9.5.2,1.5-1.4,2.9-4.9a20.125,20.125,0,0,0,1.5-5c0-.4-.1-.6-.3-.7-8.6-3.8-15.8-5.6-21.8-5.6Z" fill="#fff"/>
    <path id="Path_11" data-name="Path 11" d="M342.1,99.3H313.6v-61q0-.9-4.8-.9c-3.1,0-4.7.3-4.7.9V107h38c.6,0,1-1.3,1-3.9,0-2.5-.3-3.8-1-3.8Zm16.1-61c0-.6-1.5-.9-4.6-.9q-4.8,0-4.8.9v68.1c0,.6,1.6.9,4.7.9s4.7-.3,4.7-.9V38.3Zm64.1,68.1q0,.9-6,.9-4.95,0-5.4-.9L379.8,51.9c-.5-1.3-.8-2.2-1.1-2.9a35.172,35.172,0,0,1,.4,3.7v53.7c0,.6-1.6.9-4.9.9-3.1,0-4.6-.3-4.6-.9V38.3c0-.6,2-.9,5.9-.9,3.5,0,5.4.3,5.8.9l30.8,55.4c.6,1.2.9,2.1,1.2,2.7-.2-1.3-.4-2.1-.4-2.6V38.3c0-.6,1.6-.9,4.7-.9q4.8,0,4.8.9v68.1Zm30.8-37.5L480,38v-.1c0-.3-1.8-.5-5.4-.5q-5.1,0-5.7.6L442.5,68.2V38.3c0-.6-1.6-.9-4.7-.9s-4.7.3-4.7.9v68.1c0,.6,1.5.9,4.6.9q4.8,0,4.8-.9V80.1l4.4-5,23.7,31.5c.4.5,2.4.7,6.1.7q5.1,0,5.1-.6v-.1L453.1,68.9Z" fill="#fff"/>
    <g id="Group_3" data-name="Group 3">
      <g id="Group_2" data-name="Group 2" clip-path="url(#clip-path)">
        <g id="Group_1" data-name="Group 1" clip-path="url(#clip-path-2)">
          <rect id="Rectangle_1" data-name="Rectangle 1" width="78.72" height="85.44" transform="translate(105.557 29.719)" fill="#fff"/>
        </g>
      </g>
    </g>
    <g id="Group_6" data-name="Group 6">
      <g id="Group_5" data-name="Group 5" clip-path="url(#clip-path-3)">
        <g id="Group_4" data-name="Group 4" clip-path="url(#clip-path-4)">
          <rect id="Rectangle_3" data-name="Rectangle 3" width="34.56" height="15.84" transform="translate(145.493 35.008)" fill="#fff"/>
        </g>
      </g>
    </g>
    <g id="Group_9" data-name="Group 9">
      <g id="Group_8" data-name="Group 8" clip-path="url(#clip-path-5)">
        <g id="Group_7" data-name="Group 7" clip-path="url(#clip-path-6)">
          <rect id="Rectangle_5" data-name="Rectangle 5" width="59.52" height="20.64" transform="translate(131.117 47.484)" fill="#fff"/>
        </g>
      </g>
    </g>
    <g id="Group_12" data-name="Group 12">
      <g id="Group_11" data-name="Group 11" clip-path="url(#clip-path-7)">
        <g id="Group_10" data-name="Group 10" clip-path="url(#clip-path-8)">
          <rect id="Rectangle_7" data-name="Rectangle 7" width="74.88" height="21.6" transform="translate(118.666 65.191)" fill="#fff"/>
        </g>
      </g>
    </g>
    <g id="Group_15" data-name="Group 15">
      <g id="Group_14" data-name="Group 14" clip-path="url(#clip-path-9)">
        <g id="Group_13" data-name="Group 13" clip-path="url(#clip-path-10)">
          <rect id="Rectangle_9" data-name="Rectangle 9" width="59.52" height="16.8" transform="translate(131.055 84.674)" fill="#fff"/>
        </g>
      </g>
    </g>
  </g>
</svg>
