<?xml version="1.0" encoding="utf-8"?>
<!-- Generator: Adobe Illustrator 24.0.2, SVG Export Plug-In . SVG Version: 6.00 Build 0)  -->
<svg version="1.1" id="Layer_1" xmlns="http://www.w3.org/2000/svg" xmlns:xlink="http://www.w3.org/1999/xlink" x="0px" y="0px"
	 viewBox="0 0 304.1 304.1" style="enable-background:new 0 0 304.1 304.1;" xml:space="preserve">
<style type="text/css">
	.st0{fill:#283A97;}
	.st1{fill:#FFFFFF;}
</style>
<g>
	<path class="st0" d="M289.7,304.1H14.3c-7.9,0-14.3-6.4-14.3-14.3V14.3C0,6.4,6.4,0,14.3,0h275.4c7.9,0,14.3,6.4,14.3,14.3v275.4
		C304.1,297.7,297.7,304.1,289.7,304.1"/>
	<path class="st1" d="M36.6,182.9l12.6-0.8c0.3,2,0.8,3.6,1.7,4.7c1.4,1.7,3.3,2.6,5.8,2.6c1.9,0,3.3-0.4,4.4-1.3
		c1-0.9,1.5-1.9,1.5-3.1c0-1.1-0.5-2.1-1.5-3c-1-0.9-3.2-1.7-6.8-2.5c-5.8-1.3-9.9-3-12.4-5.2c-2.5-2.2-3.7-4.9-3.7-8.2
		c0-2.2,0.6-4.3,1.9-6.2c1.3-2,3.2-3.5,5.7-4.6c2.6-1.1,6.1-1.7,10.5-1.7c5.5,0,9.6,1,12.5,3c2.9,2,4.6,5.3,5.1,9.7l-12.4,0.7
		c-0.3-1.9-1-3.3-2.1-4.2c-1.1-0.9-2.5-1.3-4.4-1.3c-1.5,0-2.7,0.3-3.5,1c-0.8,0.7-1.2,1.4-1.2,2.4c0,0.7,0.3,1.3,1,1.8
		c0.6,0.6,2.1,1.1,4.4,1.6c5.8,1.2,9.9,2.5,12.4,3.8c2.5,1.3,4.3,2.9,5.4,4.7c1.1,1.9,1.7,4,1.7,6.3c0,2.7-0.8,5.3-2.3,7.6
		c-1.5,2.3-3.6,4.1-6.4,5.3c-2.7,1.2-6.1,1.8-10.3,1.8c-7.3,0-12.3-1.4-15.1-4.2C38.6,190.8,37,187.3,36.6,182.9"/>
	<polygon class="st1" points="81.3,154.4 93.4,154.4 93.4,176.4 102.2,166.1 116.8,166.1 105.7,177 117.5,197.1 104.1,197.1 
		97.8,184.7 93.4,189 93.4,197.1 81.3,197.1 	"/>
	<path class="st1" d="M118.7,166.1h12.5l6.4,20.6l5.9-20.6h11.7l-12.3,33.1c-1.4,3.8-2.8,6.3-4.3,7.6c-2.1,1.9-5.2,2.8-9.4,2.8
		c-1.7,0-4.3-0.2-7.9-0.7l-0.9-8.3c1.7,0.5,3.6,0.8,5.7,0.8c1.4,0,2.5-0.3,3.4-1c0.9-0.6,1.6-1.8,2.2-3.4L118.7,166.1z"/>
	<polygon class="st1" points="159.4,154.4 171.7,154.4 187.8,178 187.8,154.4 200.2,154.4 200.2,197.1 187.8,197.1 171.8,173.6 
		171.8,197.1 159.4,197.1 	"/>
	<path class="st1" d="M230.5,178.9c-0.2-2.3-0.9-3.9-1.8-4.9c-1-1-2.3-1.5-3.9-1.5c-1.9,0-3.4,0.7-4.5,2.2c-0.7,0.9-1.2,2.3-1.4,4.2
		H230.5z M242.6,184.6h-23.8c0.2,1.9,0.7,3.3,1.5,4.3c1.1,1.3,2.6,2,4.5,2c1.2,0,2.3-0.3,3.3-0.9c0.6-0.4,1.3-1,2.1-2l11.7,1.1
		c-1.8,3.1-3.9,5.3-6.5,6.7c-2.5,1.4-6.1,2-10.9,2c-4.1,0-7.3-0.6-9.7-1.7c-2.4-1.2-4.3-3-5.8-5.5c-1.5-2.5-2.3-5.5-2.3-8.9
		c0-4.8,1.5-8.8,4.6-11.7c3.1-3,7.4-4.5,12.8-4.5c4.4,0,7.9,0.7,10.5,2c2.6,1.3,4.5,3.3,5.9,5.8c1.3,2.5,2,5.9,2,9.9V184.6z"/>
	<path class="st1" d="M262.3,154.4v11.8h6.5v8.7h-6.5v11c0,1.3,0.1,2.2,0.4,2.6c0.4,0.7,1.1,1,2,1c0.9,0,2.1-0.3,3.7-0.8l0.9,8.2
		c-2.9,0.6-5.7,1-8.2,1c-3,0-5.1-0.4-6.5-1.1c-1.4-0.8-2.4-1.9-3.1-3.4c-0.7-1.5-1-4-1-7.5v-10.9h-4.4v-8.7h4.4v-5.7L262.3,154.4z"
		/>
	<path class="st1" d="M45.1,226.9V224h7.4v6.8c-0.7,0.7-1.8,1.3-3.1,1.8c-1.4,0.5-2.7,0.8-4.1,0.8c-1.8,0-3.3-0.4-4.7-1.1
		c-1.3-0.7-2.3-1.8-3-3.2c-0.7-1.4-1-2.9-1-4.5c0-1.8,0.4-3.3,1.1-4.7c0.7-1.4,1.8-2.4,3.3-3.2c1.1-0.6,2.4-0.8,4.1-0.8
		c2.1,0,3.8,0.4,4.9,1.3c1.2,0.9,2,2.1,2.3,3.7l-3.4,0.6c-0.2-0.8-0.7-1.5-1.4-2c-0.7-0.5-1.5-0.7-2.5-0.7c-1.5,0-2.7,0.5-3.6,1.4
		c-0.9,0.9-1.3,2.4-1.3,4.2c0,2,0.4,3.5,1.3,4.5c0.9,1,2.1,1.5,3.5,1.5c0.7,0,1.4-0.1,2.2-0.4c0.7-0.3,1.3-0.6,1.9-1v-2.2H45.1z"/>
	<path class="st1" d="M58.8,233.1h-3.3v-12.3h3v1.8c0.5-0.8,1-1.4,1.4-1.6c0.4-0.3,0.9-0.4,1.4-0.4c0.7,0,1.5,0.2,2.1,0.6l-1,2.8
		c-0.5-0.4-1.1-0.5-1.5-0.5c-0.5,0-0.8,0.1-1.2,0.4c-0.3,0.3-0.6,0.7-0.7,1.4c-0.2,0.7-0.3,2-0.3,4.1V233.1z"/>
	<path class="st1" d="M67.5,227c0,1.2,0.3,2.2,0.9,2.8c0.6,0.7,1.3,1,2.1,1s1.6-0.3,2.1-1c0.6-0.6,0.9-1.6,0.9-2.8
		c0-1.2-0.3-2.1-0.9-2.8c-0.6-0.7-1.3-1-2.1-1s-1.6,0.3-2.1,1C67.8,224.8,67.5,225.8,67.5,227 M64.2,226.8c0-1.1,0.3-2.1,0.8-3.1
		c0.5-1,1.3-1.8,2.3-2.3c1-0.5,2.1-0.8,3.3-0.8c1.9,0,3.4,0.6,4.6,1.8c1.2,1.2,1.8,2.7,1.8,4.6c0,1.9-0.6,3.4-1.8,4.6
		c-1.2,1.2-2.7,1.8-4.5,1.8c-1.1,0-2.2-0.3-3.2-0.8c-1-0.5-1.8-1.3-2.3-2.2C64.5,229.4,64.2,228.2,64.2,226.8"/>
	<path class="st1" d="M87.6,233.1v-1.8c-0.4,0.7-1,1.2-1.8,1.6c-0.7,0.4-1.5,0.6-2.3,0.6c-0.8,0-1.6-0.2-2.2-0.5
		c-0.7-0.4-1.1-0.9-1.4-1.5c-0.3-0.7-0.4-1.6-0.4-2.7v-7.8h3.3v5.7c0,1.7,0.1,2.8,0.2,3.2c0.1,0.4,0.3,0.7,0.7,0.9
		c0.3,0.2,0.7,0.3,1.2,0.3c0.6,0,1.1-0.2,1.5-0.5c0.4-0.3,0.7-0.7,0.9-1.1c0.2-0.5,0.2-1.6,0.2-3.3v-5.2h3.3v12.3H87.6z"/>
	<path class="st1" d="M97.1,226.8c0,1.4,0.3,2.4,0.8,3.1c0.5,0.7,1.2,1,2,1c0.8,0,1.4-0.3,1.9-0.9c0.5-0.6,0.8-1.6,0.8-3
		c0-1.3-0.3-2.2-0.8-2.9c-0.5-0.6-1.2-0.9-1.9-0.9c-0.8,0-1.5,0.3-2,0.9C97.4,224.7,97.1,225.6,97.1,226.8 M93.9,220.8h3v1.8
		c0.4-0.6,0.9-1.1,1.6-1.5c0.7-0.4,1.4-0.6,2.2-0.6c1.4,0,2.6,0.6,3.6,1.7c1,1.1,1.5,2.7,1.5,4.7c0,2.1-0.5,3.7-1.5,4.8
		c-1,1.1-2.2,1.7-3.7,1.7c-0.7,0-1.3-0.1-1.8-0.4c-0.6-0.3-1.1-0.7-1.7-1.4v6.2h-3.3V220.8z"/>
	<path class="st1" d="M117.7,227c0,1.2,0.3,2.2,0.9,2.8c0.6,0.7,1.3,1,2.1,1c0.9,0,1.6-0.3,2.1-1c0.6-0.6,0.9-1.6,0.9-2.8
		c0-1.2-0.3-2.1-0.9-2.8c-0.6-0.7-1.3-1-2.1-1c-0.9,0-1.6,0.3-2.1,1C117.9,224.8,117.7,225.8,117.7,227 M114.3,226.8
		c0-1.1,0.3-2.1,0.8-3.1c0.5-1,1.3-1.8,2.3-2.3c1-0.5,2.1-0.8,3.3-0.8c1.9,0,3.4,0.6,4.6,1.8c1.2,1.2,1.8,2.7,1.8,4.6
		c0,1.9-0.6,3.4-1.8,4.6c-1.2,1.2-2.7,1.8-4.5,1.8c-1.1,0-2.2-0.3-3.2-0.8c-1-0.5-1.8-1.3-2.3-2.2
		C114.6,229.4,114.3,228.2,114.3,226.8"/>
	<path class="st1" d="M128.2,220.8h1.8v-0.9c0-1,0.1-1.8,0.3-2.3c0.2-0.5,0.6-0.9,1.2-1.2c0.6-0.3,1.3-0.5,2.2-0.5
		c0.9,0,1.8,0.1,2.7,0.4l-0.4,2.3c-0.5-0.1-1-0.2-1.5-0.2c-0.5,0-0.8,0.1-1,0.3c-0.2,0.2-0.3,0.6-0.3,1.3v0.9h2.4v2.6h-2.4v9.8H130
		v-9.8h-1.8V220.8z"/>
	<path class="st1" d="M155,226.9l3.3,1.1c-0.5,1.9-1.4,3.2-2.5,4.1c-1.2,0.9-2.7,1.4-4.5,1.4c-2.3,0-4.1-0.8-5.6-2.3
		c-1.5-1.5-2.2-3.7-2.2-6.3c0-2.8,0.7-5,2.2-6.6c1.5-1.6,3.4-2.3,5.8-2.3c2.1,0,3.8,0.6,5.1,1.8c0.8,0.7,1.4,1.8,1.7,3.1l-3.4,0.8
		c-0.2-0.9-0.6-1.6-1.3-2.1c-0.6-0.5-1.4-0.8-2.3-0.8c-1.3,0-2.3,0.5-3.1,1.4c-0.8,0.9-1.2,2.4-1.2,4.4c0,2.1,0.4,3.7,1.2,4.6
		c0.8,0.9,1.8,1.4,3,1.4c0.9,0,1.7-0.3,2.4-0.9C154.2,229.1,154.7,228.1,155,226.9"/>
	<path class="st1" d="M163.8,227c0,1.2,0.3,2.2,0.9,2.8c0.6,0.7,1.3,1,2.1,1c0.9,0,1.6-0.3,2.1-1c0.6-0.6,0.9-1.6,0.9-2.8
		c0-1.2-0.3-2.1-0.9-2.8c-0.6-0.7-1.3-1-2.1-1c-0.9,0-1.6,0.3-2.1,1C164.1,224.8,163.8,225.8,163.8,227 M160.5,226.8
		c0-1.1,0.3-2.1,0.8-3.1c0.5-1,1.3-1.8,2.3-2.3c1-0.5,2.1-0.8,3.3-0.8c1.9,0,3.4,0.6,4.6,1.8c1.2,1.2,1.8,2.7,1.8,4.6
		c0,1.9-0.6,3.4-1.8,4.6c-1.2,1.2-2.7,1.8-4.5,1.8c-1.1,0-2.2-0.3-3.2-0.8c-1-0.5-1.8-1.3-2.3-2.2
		C160.8,229.4,160.5,228.2,160.5,226.8"/>
	<path class="st1" d="M175.5,220.8h3v1.7c1.1-1.3,2.4-2,3.8-2c0.8,0,1.5,0.2,2.1,0.5c0.6,0.3,1.1,0.8,1.4,1.5
		c0.5-0.7,1.1-1.1,1.8-1.5c0.6-0.3,1.3-0.5,2-0.5c0.9,0,1.7,0.2,2.3,0.5c0.6,0.4,1.1,0.9,1.4,1.6c0.2,0.5,0.3,1.4,0.3,2.6v7.9h-3.3
		v-7c0-1.2-0.1-2-0.3-2.4c-0.3-0.5-0.8-0.7-1.4-0.7c-0.5,0-0.9,0.1-1.3,0.4c-0.4,0.3-0.7,0.7-0.9,1.2c-0.2,0.5-0.3,1.4-0.3,2.5v5.9
		H183v-6.7c0-1.2-0.1-2-0.2-2.3c-0.1-0.3-0.3-0.6-0.5-0.8c-0.2-0.2-0.6-0.3-1-0.3c-0.5,0-1,0.1-1.4,0.4c-0.4,0.3-0.7,0.7-0.9,1.2
		c-0.2,0.5-0.3,1.4-0.3,2.5v6h-3.3V220.8z"/>
	<path class="st1" d="M200,226.8c0,1.4,0.3,2.4,0.8,3.1c0.5,0.7,1.2,1,2,1c0.8,0,1.4-0.3,1.9-0.9c0.5-0.6,0.8-1.6,0.8-3
		c0-1.3-0.3-2.2-0.8-2.9c-0.5-0.6-1.2-0.9-1.9-0.9c-0.8,0-1.5,0.3-2,0.9C200.3,224.7,200,225.6,200,226.8 M196.8,220.8h3v1.8
		c0.4-0.6,0.9-1.1,1.6-1.5c0.7-0.4,1.4-0.6,2.2-0.6c1.4,0,2.6,0.6,3.6,1.7c1,1.1,1.5,2.7,1.5,4.7c0,2.1-0.5,3.7-1.5,4.8
		c-1,1.1-2.2,1.7-3.7,1.7c-0.7,0-1.3-0.1-1.8-0.4c-0.6-0.3-1.1-0.7-1.7-1.4v6.2h-3.3V220.8z"/>
	<path class="st1" d="M218.2,227.2c-0.4,0.1-1.1,0.3-2,0.5c-0.9,0.2-1.5,0.4-1.8,0.6c-0.4,0.3-0.6,0.7-0.6,1.2
		c0,0.5,0.2,0.9,0.5,1.2c0.3,0.3,0.8,0.5,1.3,0.5c0.6,0,1.1-0.2,1.7-0.6c0.4-0.3,0.7-0.7,0.8-1.1c0.1-0.3,0.1-0.8,0.1-1.6V227.2z
		 M213.8,224.6l-3-0.5c0.3-1.2,0.9-2.1,1.7-2.6c0.8-0.6,2-0.9,3.6-0.9c1.5,0,2.5,0.2,3.2,0.5c0.7,0.3,1.2,0.8,1.5,1.3
		c0.3,0.5,0.4,1.5,0.4,2.9l0,3.8c0,1.1,0.1,1.9,0.2,2.4c0.1,0.5,0.3,1.1,0.6,1.7h-3.2c-0.1-0.2-0.2-0.5-0.3-1l-0.1-0.4
		c-0.6,0.5-1.2,0.9-1.8,1.2c-0.6,0.3-1.3,0.4-2,0.4c-1.3,0-2.3-0.3-3-1c-0.7-0.7-1.1-1.6-1.1-2.6c0-0.7,0.2-1.3,0.5-1.9
		c0.3-0.5,0.8-1,1.4-1.3c0.6-0.3,1.5-0.5,2.6-0.8c1.5-0.3,2.6-0.6,3.2-0.8v-0.3c0-0.6-0.2-1.1-0.5-1.3c-0.3-0.3-0.9-0.4-1.8-0.4
		c-0.6,0-1,0.1-1.4,0.3C214.3,223.6,214,224,213.8,224.6"/>
	<path class="st1" d="M235.8,233.1h-3.3v-6.3c0-1.3-0.1-2.2-0.2-2.6c-0.1-0.4-0.4-0.7-0.7-0.9c-0.3-0.2-0.7-0.3-1.1-0.3
		c-0.6,0-1.1,0.2-1.5,0.5c-0.4,0.3-0.8,0.7-0.9,1.2c-0.2,0.5-0.2,1.5-0.2,2.8v5.6h-3.3v-12.3h3v1.8c1.1-1.4,2.4-2.1,4.1-2.1
		c0.7,0,1.4,0.1,2,0.4c0.6,0.3,1,0.6,1.4,1c0.3,0.4,0.5,0.9,0.6,1.4c0.1,0.5,0.2,1.2,0.2,2.2V233.1z"/>
	<path class="st1" d="M239.1,220.8h3.3v12.3h-3.3V220.8z M239.1,216.1h3.3v3h-3.3V216.1z"/>
	<path class="st1" d="M253,225.9c0-0.9-0.3-1.7-0.7-2.2c-0.5-0.5-1-0.7-1.7-0.7c-0.7,0-1.3,0.3-1.8,0.8c-0.5,0.5-0.7,1.2-0.7,2.1
		H253z M252.9,229.2l3.2,0.5c-0.4,1.2-1.1,2.1-2,2.7c-0.9,0.6-2,0.9-3.4,0.9c-2.1,0-3.7-0.7-4.8-2.1c-0.8-1.1-1.2-2.5-1.2-4.2
		c0-2,0.5-3.6,1.6-4.8c1.1-1.2,2.4-1.7,4.1-1.7c1.8,0,3.3,0.6,4.3,1.8c1.1,1.2,1.6,3.1,1.5,5.6h-8.2c0,1,0.3,1.7,0.8,2.3
		c0.5,0.5,1.1,0.8,1.9,0.8c0.5,0,0.9-0.1,1.3-0.4C252.4,230.3,252.7,229.8,252.9,229.2"/>
	<path class="st1" d="M257.8,229.6l3.3-0.5c0.1,0.6,0.4,1.1,0.8,1.4c0.4,0.3,1,0.5,1.8,0.5c0.8,0,1.5-0.2,1.9-0.5
		c0.3-0.2,0.4-0.5,0.4-0.9l-0.2-0.6c-0.2-0.2-0.5-0.3-1.1-0.4c-2.6-0.6-4.3-1.1-5-1.6c-1-0.7-1.5-1.6-1.5-2.8c0-1.1,0.4-2,1.3-2.7
		c0.8-0.7,2.2-1.1,3.9-1.1c1.7,0,2.9,0.3,3.8,0.8c0.8,0.5,1.4,1.4,1.7,2.4l-3.1,0.6c-0.1-0.5-0.4-0.9-0.7-1.1
		c-0.4-0.3-0.9-0.4-1.6-0.4c-0.9,0-1.5,0.1-1.8,0.4c-0.2,0.2-0.4,0.4-0.4,0.7l0.3,0.6c0.3,0.2,1.3,0.5,3,0.9
		c1.7,0.4,2.9,0.9,3.6,1.5c0.7,0.6,1,1.4,1,2.4c0,1.1-0.5,2.1-1.4,2.9c-0.9,0.8-2.3,1.2-4.2,1.2c-1.7,0-3-0.3-4-1
		C258.7,231.7,258.1,230.8,257.8,229.6"/>
	<path class="st1" d="M82.8,25c0,0,160.9-6.9,119.9,56.1c0,0-18.3,30.9-74.4,64.3c0,0,70.8-24.7,123.6-84.5
		C299.2,7.4,113.8,13.7,82.8,25"/>
</g>
</svg>
